<svg width="32" height="32" viewBox="0 0 32 32" fill="none" xmlns="http://www.w3.org/2000/svg">
  <circle cx="16" cy="16" r="16" fill="#1A2744"/>
  <circle cx="16" cy="16" r="14" stroke="#4DB8FF" stroke-width="1.5" stroke-dasharray="2 2"/>
  <path d="M16 6C10.4772 6 6 10.4772 6 16C6 21.5228 10.4772 26 16 26C21.5228 26 26 21.5228 26 16C26 10.4772 21.5228 6 16 6ZM16 23.5C11.8579 23.5 8.5 20.1421 8.5 16C8.5 11.8579 11.8579 8.5 16 8.5C20.1421 8.5 23.5 11.8579 23.5 16C23.5 20.1421 20.1421 23.5 16 23.5Z" fill="#4DB8FF"/>
  <path d="M16 13V16H21V19H13V13H16Z" fill="white"/>
  <circle cx="16" cy="16" r="1" fill="white"/>
</svg>